<?xml version="1.0" encoding="utf-8"?>
<!-- Generator: Adobe Illustrator 25.2.1, SVG Export Plug-In . SVG Version: 6.00 Build 0)  -->
<svg version="1.1" id="Layer_1" xmlns="http://www.w3.org/2000/svg" xmlns:xlink="http://www.w3.org/1999/xlink" x="0px" y="0px"
	 viewBox="0 0 402 41" style="enable-background:new 0 0 402 41;" xml:space="preserve">
<style type="text/css">
	.st0{fill:#FFFFFF;}
</style>
<g>
	<g>
		<path class="st0" d="M8,0H0v16.3l4.7,0.9L8,0z M0,19.5V27l3.5-3.5l0.6-3.2L0,19.5z M0,41h0.4l2.2-12L0,31.6V41z M3.8,41H12
			L5.9,30.4L3.8,41z M24.1,38.8L22,41h7.9l1-9.5L24.1,38.8L24.1,38.8z M18.6,23.7L7.6,21.6L6.9,25c-0.1,0.7,7.3,13.4,8.8,16h1.4
			l5.2-5l0,0l8.8-8.5l0.3-1.4L18.6,23.7L18.6,23.7z M34,41h7.5v-0.7l-6.3-7.8L34,41z M35.5,28.5l5.9,7v-8.2l-5.6-0.4L35.5,28.5z
			 M8.3,17.9l10.4,2.3l0,0l13.5,3l3-17.5l5.4,0.6l-4,17.4l5,0.6V0H11.7L8.3,17.9z"/>
	</g>
</g>
</svg>
