<?xml version="1.0" encoding="iso-8859-1"?>
<!-- Generator: Adobe Illustrator 19.0.0, SVG Export Plug-In . SVG Version: 6.00 Build 0)  -->
<svg version="1.1" id="Capa_1" xmlns="http://www.w3.org/2000/svg" xmlns:xlink="http://www.w3.org/1999/xlink" x="0px" y="0px"
	 viewBox="0 0 512.003 512.003" style="enable-background:new 0 0 512.003 512.003;" xml:space="preserve">
<g>
	<g>
		<circle cx="256.001" cy="384.003" r="11.636"/>
	</g>
</g>
<g>
	<g>
		<path d="M162.911,418.912h-128c-6.412,0-11.636-5.213-11.636-11.636V104.73c0-6.423,5.225-11.636,11.636-11.636h46.545
			c6.423,0,11.636-5.201,11.636-11.636c0-6.435-5.213-11.636-11.636-11.636H34.911c-19.247,0-34.909,15.663-34.909,34.909v302.545
			c0,19.247,15.663,34.909,34.909,34.909h128c6.423,0,11.636-5.201,11.636-11.636S169.334,418.912,162.911,418.912z"/>
	</g>
</g>
<g>
	<g>
		<path d="M453.82,325.821H58.183c-6.423,0-11.636,5.201-11.636,11.636c0,6.435,5.213,11.636,11.636,11.636H453.82
			c6.423,0,11.636-5.201,11.636-11.636C465.456,331.023,460.243,325.821,453.82,325.821z"/>
	</g>
</g>
<g>
	<g>
		<path d="M477.092,69.821h-46.545c-6.423,0-11.636,5.201-11.636,11.636c0,6.435,5.213,11.636,11.636,11.636h46.545
			c6.412,0,11.636,5.213,11.636,11.636v302.545c0,6.423-5.225,11.636-11.636,11.636H209.456c-6.423,0-11.636,5.201-11.636,11.636
			v46.545c0,6.423-5.225,11.636-11.636,11.636h-11.636c-6.423,0-11.636,5.201-11.636,11.636s5.213,11.636,11.636,11.636h162.909
			c6.423,0,11.636-5.201,11.636-11.636s-5.213-11.636-11.636-11.636H325.82c-6.412,0-11.636-5.213-11.636-11.636v-34.909h162.909
			c19.247,0,34.909-15.663,34.909-34.909V104.73C512.001,85.484,496.339,69.821,477.092,69.821z M218.951,488.73
			c1.303-3.654,2.141-7.54,2.141-11.636v-34.909h69.818v34.909c0,4.096,0.838,7.983,2.141,11.636H218.951z"/>
	</g>
</g>
<g>
	<g>
		<path d="M243.62,81.853L196.051,5.74c-4.212-7.645-15.43-7.645-19.735,0l-47.558,76.113
			c-8.111,12.951-12.393,27.869-12.393,43.171V291.18c0,6.435,5.213,11.636,11.636,11.636c6.423,0,11.636-5.201,11.636-11.636
			V125.024c0-10.915,3.06-21.574,8.844-30.825l29.603-47.372h16.186l29.603,47.372c2.129,3.409,3.77,7.063,5.143,10.81h-66.106
			c-6.423,0-11.636,5.201-11.636,11.636c0,6.435,5.213,11.636,11.636,11.636h69.818v162.909c0,6.435,5.213,11.636,11.636,11.636
			s11.636-5.201,11.636-11.636V125.024C256.001,109.734,251.719,94.804,243.62,81.853z"/>
	</g>
</g>
<g>
	<g>
		<path d="M186.183,151.276c-6.423,0-11.636,5.201-11.636,11.636v128c0,6.435,5.213,11.636,11.636,11.636
			s11.636-5.201,11.636-11.636v-128C197.82,156.477,192.607,151.276,186.183,151.276z"/>
	</g>
</g>
<g>
	<g>
		<path d="M380.324,173.536c-2.025-6.086-8.588-9.391-14.72-7.354c-6.097,2.025-9.391,8.611-7.354,14.72
			c9.367,28.102,14.115,57.379,14.115,87.005v23.273c0,6.435,5.213,11.636,11.636,11.636c6.423,0,11.636-5.201,11.636-11.636
			v-23.273C395.638,235.767,390.483,204.023,380.324,173.536z"/>
	</g>
</g>
<g>
	<g>
		<path d="M322.561,163.18h14.895c32.081,0,58.182-24.006,58.182-53.527c0-37.655-44.183-97.687-48.826-104.669
			c-4.41-6.644-14.324-6.644-18.7,0c-4.631,7.005-48.838,67.014-48.838,104.669c0,3.037,0.279,6.086,0.838,9.088
			c1.175,6.319,7.215,10.519,13.568,9.332c6.319-1.175,10.496-7.238,9.321-13.556c-0.303-1.583-0.454-3.2-0.454-4.864
			c0-20.34,20.433-55.587,34.909-77.405c14.476,21.807,34.909,57.03,34.909,77.405c0,16.687-15.663,30.255-34.909,30.255h-23.273
			c-5.015,0-9.449,3.2-11.043,7.959l-8.553,25.67c-10.159,30.487-15.313,62.231-15.313,94.371v23.273
			c0,6.435,5.213,11.636,11.636,11.636s11.636-5.201,11.636-11.636v-23.273c0-3.898,0.303-7.761,0.465-11.636h34.444
			c6.423,0,11.636-5.201,11.636-11.636s-5.213-11.636-11.636-11.636h-32.477c2.257-17.664,6.016-35.107,11.683-52.108
			L322.561,163.18z"/>
	</g>
</g>
<g>
</g>
<g>
</g>
<g>
</g>
<g>
</g>
<g>
</g>
<g>
</g>
<g>
</g>
<g>
</g>
<g>
</g>
<g>
</g>
<g>
</g>
<g>
</g>
<g>
</g>
<g>
</g>
<g>
</g>
</svg>
