<svg id="svg2985" xmlns="http://www.w3.org/2000/svg" xmlns:xlink="http://www.w3.org/1999/xlink" viewBox="0 0 999.06 300.21"><defs><style>.cls-1{fill:none;}.cls-2{clip-path:url(#clip-path);}.cls-3{clip-path:url(#clip-path-2);}.cls-4{fill:#fff;}</style><clipPath id="clip-path" transform="translate(-0.56 -0.25)"><rect class="cls-1" x="-4469.05" y="-1523.83" width="10371.15" height="3411.9"/></clipPath><clipPath id="clip-path-2" transform="translate(-0.56 -0.25)"><rect class="cls-1" x="0.56" y="0.25" width="999.06" height="299.51"/></clipPath></defs><g id="g2993"><g id="g3455"><g class="cls-2"><g id="g3457"><g id="g3463"><g class="cls-3"><g id="g3465"><path id="path3471" class="cls-4" d="M378.27,105.67h19.55L388,74.25h0Zm-4.89-62.84h30l33.51,97.05H408.29l-4.19-14.66H372.68l-4.19,14.66H339.87" transform="translate(-0.56 -0.25)"/><path id="path3473" class="cls-4" d="M522.79,139.88h25.83V35.16H522.79Z" transform="translate(-0.56 -0.25)"/><path id="path3475" class="cls-4" d="M599.58,122.43c7.68,0,11.17-9.08,11.17-21,0-12.57-3.49-19.55-11.17-19.55a13.58,13.58,0,0,0-11.17,5.59v30a15.21,15.21,0,0,0,11.17,4.89Zm-37.7-87.27h25.83v37A25.8,25.8,0,0,1,608,62.38c16.76,0,27.93,12.57,27.93,39.1s-11.87,39.8-27.23,39.8c-9.78,0-16.76-4.19-22.34-9.78l-1.4,8.38h-23" transform="translate(-0.56 -0.25)"/><path id="path3477" class="cls-4" d="M682,122.43c8.37,0,12.56-8.38,12.56-21.65,0-12.56-4.88-20.24-12.56-20.24-8.38,0-12.57,7.68-12.57,20.24C669.4,114.75,673.59,122.43,682,122.43Zm0-60c22.34,0,39.09,16.06,39.09,39.1C721.06,126.61,705,142,682,142c-23.74,0-39.1-15.36-39.1-40.49,0-23.74,16.75-39.1,39.1-39.1" transform="translate(-0.56 -0.25)"/><path id="path3479" class="cls-4" d="M730.14,63.78h24.43L756,74.25C761.56,63.78,769.24,61,776.92,61a35.38,35.38,0,0,1,8.37,1.39L782.5,86.12A42.11,42.11,0,0,0,772,84.72c-7,0-11.87,4.19-15.36,11.17v43.29H730.84" transform="translate(-0.56 -0.25)"/><path id="path3481" class="cls-4" d="M832.07,89.61c0-7-3.49-11.17-9.08-11.17s-9.07,4.89-9.07,11.17c0,7,3.49,11.17,9.07,11.17S832.07,96.59,832.07,89.61Zm-19.55,53.06c-2.09,1.4-2.79,3.49-2.79,6.29,0,4.18,3.49,5.58,15.36,5.58,12.56,0,16.75-1.4,16.75-4.89s-2.79-4.88-15.36-5.58a71.83,71.83,0,0,1-14-1.4Zm-16.75-8.38q-4.2-5.23-4.19-10.47c0-4.89,2.79-9.77,8.37-13.26a25.79,25.79,0,0,1-10.47-21c0-16.75,14.66-27.23,33.51-27.23a39.84,39.84,0,0,1,22.34,6.29c5.59-3.49,11.87-6.29,22.35-6.29V77.74a77.17,77.17,0,0,0-13.27,1.4,25.43,25.43,0,0,1,2.1,10.47c0,17.46-16.06,27.23-33.52,27.23a47.35,47.35,0,0,1-10.47-1.4,3.84,3.84,0,0,0-2.09,3.49c0,2.8,3.49,4.19,17.45,4.19,24.44.7,37,7.68,37,22.34s-12.56,23-40.49,23c-23.74,0-39.1-6.28-39.1-19.54q1.05-9.44,10.48-14.67" transform="translate(-0.56 -0.25)"/><path id="path3483" class="cls-4" d="M461.35,240.41c8.38,0,12.56-8.37,12.56-21.64,0-12.57-4.88-20.25-12.56-20.25-8.38,0-12.57,7.68-12.57,20.25C448.78,232,453,240.41,461.35,240.41Zm0-60c22.34,0,39.09,16.06,39.09,39.1,0,25.13-16.05,40.49-39.09,40.49-23.74,0-39.1-15.36-39.1-40.49,0-23.74,16.76-39.1,39.1-39.1" transform="translate(-0.56 -0.25)"/><path id="path3485" class="cls-4" d="M509.52,181.77h25.13l.7,7.68c5.59-5.59,14-9.08,20.95-9.08,9.77,0,16.05,4.19,18.85,10.47,7.68-7,14.66-10.47,23.73-10.47,15.36,0,23,10.47,23,27.23v50.27H596.09v-51c0-4.88-2.09-7.68-6.28-7.68-3.49,0-7.68,2.1-11.17,6.29v53.06H552.81v-51c0-5.58-2.1-7.68-6.29-7.68s-8.38,2.79-11.17,7v52.36H509.52" transform="translate(-0.56 -0.25)"/><path id="path3487" class="cls-4" d="M635.19,181.77h25.13l.7,7.68c5.59-5.59,14-9.08,21-9.08,9.77,0,16,4.19,18.85,10.47,7.68-7,14.66-10.47,23.73-10.47,15.36,0,23,10.47,23,27.23v50.27H721.76v-51c0-4.88-2.09-7.68-6.28-7.68-3.49,0-7.68,2.1-11.17,6.29v53.06H678.47v-51c0-5.58-2.09-7.68-6.28-7.68s-8.38,2.79-11.17,7v52.36H635.19" transform="translate(-0.56 -0.25)"/><path id="path3489" class="cls-4" d="M760.16,181.77H786V232c0,4.88,2.1,8.37,7,8.37s8.38-2.79,11.87-7V181.77h25.83v76.1H806.24l-1.4-8.38a30.35,30.35,0,0,1-22.34,9.77c-16.76,0-23.74-9.77-23.74-27.92" transform="translate(-0.56 -0.25)"/><path id="path3491" class="cls-4" d="M844.64,181.77h24.43l1.4,8.38c5.58-5.59,12.57-9.78,21.64-9.78,17.46,0,23.74,9.78,23.74,27.93v49.57H890V207.6c0-4.89-2.1-8.38-7.68-8.38-4.19,0-8.38,2.8-11.87,7v51.67H844.64" transform="translate(-0.56 -0.25)"/><path id="path3493" class="cls-4" d="M951.45,212.49h23.74c0-8.38-2.79-14-10.47-14C958.44,197.83,953.55,202.71,951.45,212.49ZM964,180.37c21.64,0,35.61,13.27,35.61,34.21,0,3.49-.7,8.38-.7,11.17H951.45c1.4,9.08,6.29,13.27,14.67,13.27a36.35,36.35,0,0,0,20.24-6.29l10.48,15.36c-9.78,7.68-21.65,10.48-33.52,10.48-21.64,0-39.09-14.67-39.09-39.8.69-23.74,18.85-38.4,39.79-38.4" transform="translate(-0.56 -0.25)"/><path id="path3495" class="cls-4" d="M482.29,118.93a13.61,13.61,0,0,1-10.47,4.89c-4.19,0-7-2.79-7-6.28,0-7,7-10.47,17.45-11.17Zm25.83-.69V89.61c0-16.75-9.07-27.92-32.81-27.92-9.77,0-20.94,2.79-31.42,7.67a11.87,11.87,0,0,0-4.19,2.1l7,19.55c.69,0,3.49-2.1,4.19-2.1,9.77-4.88,16.75-7,23-7,5.59,0,8.38,2.1,8.38,7V93.1C450.18,95.89,439,107.07,439,121c0,11.87,9.07,20.25,22.34,20.25,10.47,0,17.45-3.5,23.73-11.18,5.59,8.38,11.87,9.78,27.93,9.78V123.12c-2.79,0-4.89-1.39-4.89-4.88" transform="translate(-0.56 -0.25)"/><path id="path3497" class="cls-4" d="M342.66,160.82h26.53v37.7h0l26.53-37.7h28.63L391.53,206.9h0l35.61,50.27H395.72l-27.23-39.1h0v39.1H342.66" transform="translate(-0.56 -0.25)"/><path id="path3499" class="cls-4" d="M111.57,151.75c-3.49,0-5.59,2.79-6.28,5.58v41.19a53.73,53.73,0,0,0,10.47,1.4h1.4V157.33a6,6,0,0,0-5.59-5.58" transform="translate(-0.56 -0.25)"/><path id="path3501" class="cls-4" d="M161.14,153.14a10.74,10.74,0,0,0-10.47-10.47,10.29,10.29,0,0,0-10.48,10.47V195a54.69,54.69,0,0,1,10.48-1.39A54.49,54.49,0,0,1,161.14,195V153.14" transform="translate(-0.56 -0.25)"/><path id="path3503" class="cls-4" d="M252.6,159.43l-5.59,14-5.58-14-14.66,2.09,9.07-11.87-9.07-11.87,14.66,2.1,5.58-14,5.59,14,14.66-2.1-9.08,11.87,9.08,11.87Zm-81-51.67-2.79-30h8.38V72.16H187v5.58h11.87V72.16h7.68v5.58h.7l20.24,30ZM224.67,121v9.77h0c-7,6.29-9.07,14.66-9.07,25.14v38.4h7.68a61.3,61.3,0,0,1-3.5,10.47c-11.86,0-21.64,7-34.21,7-11.86,0-22.34-7-34.21-7s-22.34,7-34.2,7-22.35-6.28-34.21-7a61.3,61.3,0,0,1-3.5-10.47h7.68v-38.4c0-10.48-2.09-18.85-9.07-25.14h0V112.65H92.72V121h12.57v-8.38H120V121h12.56v-8.38h14.67V121h12.56v-8.38H174.4V121H187v-8.38h14.66V121H210v-8.38h14.66V121Zm-13.26,94.25c-2.8,4.19-6.29,7-10.48,9.77-5.58,1.4-11.17,3.5-16.75,3.5-11.87,0-22.34-7-34.21-7s-22.34,7-34.21,7c-6.28,0-11.17-1.4-16.76-3.5a64.47,64.47,0,0,1-9.77-9.77c-.7-1.4-2.1-2.09-2.79-3.49,10.47,1.4,19.54,6.28,30,6.28,11.87,0,22.34-7,34.21-7s22.34,7,34.21,7c10.47,0,19.55-4.88,29.32-6.28a12.39,12.39,0,0,1-2.79,3.49ZM157,240.41H144.38c-8.37-.69-17.45-2.09-25.13-4.88,11.17-.7,20.94-7,32.12-7s20.94,5.58,32.11,7c-9.77,2.79-18.15,4.88-26.53,4.88ZM94.12,77h0l.69-5.58h7.68V77h11.17V71.46h9.78V77h8.38l-2.8,30H73.87L94.12,77ZM59.91,169.9a20.1,20.1,0,1,1-14-37.7,21.16,21.16,0,0,1,16.06.7,15.31,15.31,0,0,0-5.58.7c-7,2.79-10.48,10.47-7.68,16.75,2.79,7,10.47,10.47,16.75,7.68a12.48,12.48,0,0,0,7-6.28A18.88,18.88,0,0,1,59.91,169.9ZM99,59.59c.7,2.1,4.89,1.4,4.89,5.59a5.32,5.32,0,0,1-1.4,2.79H94.81a3.66,3.66,0,0,1-1.39-2.79C93.42,61.69,98.31,61.69,99,59.59Zm19.55-2.09c.7,2.79,6.29,2.09,6.29,7a5.34,5.34,0,0,1-1.4,3.49h-9.78c-1.39-.7-1.39-2.1-1.39-3.49,0-4.89,5.58-4.19,6.28-7Zm48.87,50.26H159l-1.39-22.34c0-3.49-3.49-6.28-7-6.28s-7,2.79-7,6.28l-1.4,22.34h-9.08L136,73.55h28.62l2.79,34.21ZM146.48,44.93a2.57,2.57,0,0,1-.7-2.1,4.89,4.89,0,0,1,9.77,0,2.6,2.6,0,0,1-.69,2.1c8.37,1.4,15.36,7.68,15.36,14.66a13.37,13.37,0,0,1-4.89,9.78H136.7c-2.79-2.8-4.88-6.29-4.88-9.78-.7-7,5.58-13.26,14.66-14.66Zm35.6,12.57c.7,2.79,6.29,2.09,6.29,7A5.34,5.34,0,0,1,187,68H177.2c-1.4-.7-1.4-2.1-1.4-3.49C175.1,59.59,180.69,60.29,182.08,57.5Zm19.55,2.09c.7,2.1,4.89,2.1,4.89,5.59a5.32,5.32,0,0,1-1.4,2.79h-7.68a3.66,3.66,0,0,1-1.39-2.79C196.75,61.69,201.63,61.69,201.63,59.59ZM150,.25C67.59.25.56,67.27.56,150.35c0,82.38,67,150.11,150.11,150.11a149.88,149.88,0,0,0,150.1-150.11C300.07,67.27,233.05.25,150,.25" transform="translate(-0.56 -0.25)"/><path id="path3505" class="cls-4" d="M189.07,151.75c-3.5,0-5.59,2.79-6.29,5.58v42.59h1.4a53.73,53.73,0,0,0,10.47-1.4V157.33c.7-2.79-2.09-5.58-5.58-5.58" transform="translate(-0.56 -0.25)"/><path id="path3507" class="cls-4" d="M189.07,139.88a18.22,18.22,0,0,0-14,7A25.57,25.57,0,0,0,150,127.31a26.18,26.18,0,0,0-25.13,19.55,18.24,18.24,0,0,0-14-7c-9.77,0-17.45,7.68-17.45,16.75V195c1.39.7,2.79.7,4.19,1.4v-39.8c0-7,6.28-12.56,13.26-12.56s12.57,5.58,13.27,12.56v42.59a10.07,10.07,0,0,0,4.19-1.39V152.45c0-11.87,9.77-20.95,21.64-20.95s21.64,9.78,21.64,20.95v45.38c1.4.69,2.79.69,4.19,1.39V157.33c.7-7,6.28-12.56,13.27-12.56s13.26,5.58,13.26,12.56v39.8c1.4-.7,2.79-.7,4.19-1.4v-38.4a17.28,17.28,0,0,0-17.45-17.45" transform="translate(-0.56 -0.25)"/></g></g></g></g></g></g></g></svg>